HIERARCHY
ROOT Hips
{
	OFFSET 0.000000 100.481300 0.000000
	CHANNELS 6 Xposition Yposition Zposition Xrotation Yrotation Zrotation 
	JOINT Spine
	{
		OFFSET -0.279200 12.230698 -2.892100
		CHANNELS 3 Xrotation Yrotation Zrotation
		JOINT Spine1
		{
			OFFSET -0.232667 10.192268 -1.242267
			CHANNELS 3 Xrotation Yrotation Zrotation
			JOINT Spine1_split
			{
				OFFSET -0.232667 10.192268 -1.242267
				CHANNELS 3 Xrotation Yrotation Zrotation
				JOINT Spine2
				{
					OFFSET -0.232667 10.192268 -1.242267
					CHANNELS 3 Xrotation Yrotation Zrotation
					JOINT Neck
					{
						OFFSET -0.418800 17.814194 8.416900
						CHANNELS 3 Xrotation Yrotation Zrotation
						JOINT Head
						{
							OFFSET 0.000000 7.031097 3.806800
							CHANNELS 3 Xrotation Yrotation Zrotation
							JOINT HeadTop_End
							{
								OFFSET 0.000000 24.646606 12.978600
								CHANNELS 3 Xrotation Yrotation Zrotation
								End Site
								{
									OFFSET 0.000000 0.000000 0.000000
								}
							}
						}
					}
					JOINT LeftShoulder
					{
						OFFSET 8.476499 7.247704 -3.868750
						CHANNELS 3 Xrotation Yrotation Zrotation
						JOINT LeftShoulder_split
						{
							OFFSET 8.476499 7.247704 -3.868750
							CHANNELS 3 Xrotation Yrotation Zrotation
							JOINT LeftArm
							{
								OFFSET 9.308998 -2.777710 0.208600
								CHANNELS 3 Xrotation Yrotation Zrotation
								JOINT LeftForeArm
								{
									OFFSET 29.972298 0.000000 0.000000
									CHANNELS 3 Xrotation Yrotation Zrotation
									JOINT LeftHand
									{
										OFFSET 26.026505 0.000000 0.000000
										CHANNELS 3 Xrotation Yrotation Zrotation
										JOINT LeftHandThumb1
										{
											OFFSET 12.240501 -7.147949 9.207150
											CHANNELS 3 Xrotation Yrotation Zrotation
											JOINT LeftHandThumb2
											{
												OFFSET 4.138618 -2.389435 2.389433
												CHANNELS 3 Xrotation Yrotation Zrotation
												JOINT LeftHandThumb3
												{
													OFFSET 2.726913 -1.574387 1.574386
													CHANNELS 3 Xrotation Yrotation Zrotation
													JOINT LeftHandThumb4
													{
														OFFSET 3.941010 -2.275345 2.275342
														CHANNELS 3 Xrotation Yrotation Zrotation
														End Site
														{
															OFFSET 0.000000 0.000000 0.000000
														}
													}
												}
											}
										}
										JOINT LeftHandIndex1
										{
											OFFSET 24.424698 -1.985611 5.953459
											CHANNELS 3 Xrotation Yrotation Zrotation
											JOINT LeftHandIndex2
											{
												OFFSET 6.426697 0.000000 0.000000
												CHANNELS 3 Xrotation Yrotation Zrotation
												JOINT LeftHandIndex3
												{
													OFFSET 5.337898 0.000000 0.000000
													CHANNELS 3 Xrotation Yrotation Zrotation
													JOINT LeftHandIndex4
													{
														OFFSET 4.409401 0.000000 0.000000
														CHANNELS 3 Xrotation Yrotation Zrotation
														End Site
														{
															OFFSET 0.000000 0.000000 0.000000
														}
													}
												}
											}
										}
										JOINT LeftHandMiddle1
										{
											OFFSET 23.810104 0.000000 0.000000
											CHANNELS 3 Xrotation Yrotation Zrotation
											JOINT LeftHandMiddle2
											{
												OFFSET 7.176498 0.000000 0.000000
												CHANNELS 3 Xrotation Yrotation Zrotation
												JOINT LeftHandMiddle3
												{
													OFFSET 6.774902 0.000000 0.000000
													CHANNELS 3 Xrotation Yrotation Zrotation
													JOINT LeftHandMiddle4
													{
														OFFSET 5.403328 0.000000 0.000000
														CHANNELS 3 Xrotation Yrotation Zrotation
														End Site
														{
															OFFSET 0.000000 0.000000 0.000000
														}
													}
												}
											}
										}
										JOINT LeftHandRing1
										{
											OFFSET 22.908401 -0.839279 -6.020567
											CHANNELS 3 Xrotation Yrotation Zrotation
											JOINT LeftHandRing2
											{
												OFFSET 6.337502 0.000000 0.000000
												CHANNELS 3 Xrotation Yrotation Zrotation
												JOINT LeftHandRing3
												{
													OFFSET 5.779297 0.000000 0.000000
													CHANNELS 3 Xrotation Yrotation Zrotation
													JOINT LeftHandRing4
													{
														OFFSET 4.965698 0.000000 0.000000
														CHANNELS 3 Xrotation Yrotation Zrotation
														End Site
														{
															OFFSET 0.000000 0.000000 0.000000
														}
													}
												}
											}
										}
										JOINT LeftHandPinky1
										{
											OFFSET 20.037003 -1.530319 -10.950146
											CHANNELS 3 Xrotation Yrotation Zrotation
											JOINT LeftHandPinky2
											{
												OFFSET 5.254700 0.000000 0.000000
												CHANNELS 3 Xrotation Yrotation Zrotation
												JOINT LeftHandPinky3
												{
													OFFSET 4.810204 0.000000 0.000000
													CHANNELS 3 Xrotation Yrotation Zrotation
													JOINT LeftHandPinky4
													{
														OFFSET 3.647202 0.000000 0.000000
														CHANNELS 3 Xrotation Yrotation Zrotation
														End Site
														{
															OFFSET 0.000000 0.000000 0.000000
														}
													}
												}
											}
										}
									}
								}
							}
						}
					}
					JOINT RightShoulder
					{
						OFFSET -7.570500 7.247704 -3.868750
						CHANNELS 3 Xrotation Yrotation Zrotation
						JOINT RightShoulder_split
						{
							OFFSET -7.570500 7.247704 -3.868750
							CHANNELS 3 Xrotation Yrotation Zrotation
							JOINT RightArm
							{
								OFFSET -9.308998 -2.777710 0.208500
								CHANNELS 3 Xrotation Yrotation Zrotation
								JOINT RightForeArm
								{
									OFFSET -29.972300 0.000000 0.000000
									CHANNELS 3 Xrotation Yrotation Zrotation
									JOINT RightHand
									{
										OFFSET -26.026505 0.000000 0.000000
										CHANNELS 3 Xrotation Yrotation Zrotation
										JOINT RightHandThumb1
										{
											OFFSET -12.240601 -7.148026 9.207092
											CHANNELS 3 Xrotation Yrotation Zrotation
											JOINT RightHandThumb2
											{
												OFFSET -4.138618 -2.389435 2.389433
												CHANNELS 3 Xrotation Yrotation Zrotation
												JOINT RightHandThumb3
												{
													OFFSET -2.726974 -1.574417 1.574421
													CHANNELS 3 Xrotation Yrotation Zrotation
													JOINT RightHandThumb4
													{
														OFFSET -3.941010 -2.275345 2.275343
														CHANNELS 3 Xrotation Yrotation Zrotation
														End Site
														{
															OFFSET 0.000000 0.000000 0.000000
														}
													}
												}
											}
										}
										JOINT RightHandIndex1
										{
											OFFSET -24.424698 -1.985657 5.953444
											CHANNELS 3 Xrotation Yrotation Zrotation
											JOINT RightHandIndex2
											{
												OFFSET -6.426697 0.000000 0.000000
												CHANNELS 3 Xrotation Yrotation Zrotation
												JOINT RightHandIndex3
												{
													OFFSET -5.337898 0.000000 0.000000
													CHANNELS 3 Xrotation Yrotation Zrotation
													JOINT RightHandIndex4
													{
														OFFSET -4.409401 0.000000 0.000000
														CHANNELS 3 Xrotation Yrotation Zrotation
														End Site
														{
															OFFSET 0.000000 0.000000 0.000000
														}
													}
												}
											}
										}
										JOINT RightHandMiddle1
										{
											OFFSET -23.810097 0.000000 0.000000
											CHANNELS 3 Xrotation Yrotation Zrotation
											JOINT RightHandMiddle2
											{
												OFFSET -7.176498 0.000000 0.000000
												CHANNELS 3 Xrotation Yrotation Zrotation
												JOINT RightHandMiddle3
												{
													OFFSET -6.774902 0.000000 0.000000
													CHANNELS 3 Xrotation Yrotation Zrotation
													JOINT RightHandMiddle4
													{
														OFFSET -5.403328 0.000000 0.000000
														CHANNELS 3 Xrotation Yrotation Zrotation
														End Site
														{
															OFFSET 0.000000 0.000000 0.000000
														}
													}
												}
											}
										}
										JOINT RightHandRing1
										{
											OFFSET -22.908302 -0.839325 -6.020576
											CHANNELS 3 Xrotation Yrotation Zrotation
											JOINT RightHandRing2
											{
												OFFSET -6.337502 0.000000 0.000000
												CHANNELS 3 Xrotation Yrotation Zrotation
												JOINT RightHandRing3
												{
													OFFSET -5.779297 0.000000 0.000000
													CHANNELS 3 Xrotation Yrotation Zrotation
													JOINT RightHandRing4
													{
														OFFSET -4.965698 0.000000 0.000000
														CHANNELS 3 Xrotation Yrotation Zrotation
														End Site
														{
															OFFSET 0.000000 0.000000 0.000000
														}
													}
												}
											}
										}
										JOINT RightHandPinky1
										{
											OFFSET -20.037003 -1.530334 -10.950259
											CHANNELS 3 Xrotation Yrotation Zrotation
											JOINT RightHandPinky2
											{
												OFFSET -5.254700 0.000000 0.000000
												CHANNELS 3 Xrotation Yrotation Zrotation
												JOINT RightHandPinky3
												{
													OFFSET -4.810204 0.000000 0.000000
													CHANNELS 3 Xrotation Yrotation Zrotation
													JOINT RightHandPinky4
													{
														OFFSET -3.647202 0.000000 0.000000
														CHANNELS 3 Xrotation Yrotation Zrotation
														End Site
														{
															OFFSET 0.000000 0.000000 0.000000
														}
													}
												}
											}
										}
									}
								}
							}
						}
					}
				}
			}
		}
	}
	JOINT LeftUpLeg
	{
		OFFSET 15.427100 -6.655098 0.678600
		CHANNELS 3 Xrotation Yrotation Zrotation
		JOINT LeftLeg
		{
			OFFSET 4.081073 -39.591068 13.024000
			CHANNELS 3 Xrotation Yrotation Zrotation
			JOINT LeftFoot
			{
				OFFSET -4.081074 -37.707932 -15.979700
				CHANNELS 3 Xrotation Yrotation Zrotation
				JOINT LeftToeBase
				{
					OFFSET 5.346399 -15.068900 20.645000
					CHANNELS 3 Xrotation Yrotation Zrotation
					JOINT LeftToe_End
					{
						OFFSET 2.754700 0.931300 11.300900
						CHANNELS 3 Xrotation Yrotation Zrotation
						End Site
						{
							OFFSET 0.000000 0.000000 0.000000
						}
					}
				}
			}
		}
	}
	JOINT RightUpLeg
	{
		OFFSET -15.569500 -6.655098 0.678600
		CHANNELS 3 Xrotation Yrotation Zrotation
		JOINT RightLeg
		{
			OFFSET -4.081825 -39.591045 13.023800
			CHANNELS 3 Xrotation Yrotation Zrotation
			JOINT RightFoot
			{
				OFFSET 4.081824 -37.707954 -15.979600
				CHANNELS 3 Xrotation Yrotation Zrotation
				JOINT RightToeBase
				{
					OFFSET -5.346400 -15.068900 20.645000
					CHANNELS 3 Xrotation Yrotation Zrotation
					JOINT RightToe_End
					{
						OFFSET -2.754700 0.931300 11.300900
						CHANNELS 3 Xrotation Yrotation Zrotation
						End Site
						{
							OFFSET 0.000000 0.000000 0.000000
						}
					}
				}
			}
		}
	}
}
MOTION
Frames: 4
Frame Time: 0.016667
1.311062 78.877625 6.947216 3.859673 -65.884210 -0.078629 8.206903 -8.182211 8.792275 -0.190738 -11.250300 6.028638 0.000000 0.000000 0.000000 -11.447050 -11.562242 5.338305 3.252613 40.080312 6.930925 20.046161 25.136467 -4.753818 0.000001 0.000001 0.000001 7.036032 -21.717445 28.304172 0.000000 0.000000 0.000000 -17.434022 -22.035024 -5.063773 -0.024463 -18.120272 -4.741185 -3.552988 -6.370906 13.626883 42.313036 -18.874792 16.581744 -1.124748 11.542639 -8.102148 13.619902 23.384768 -3.936939 0.000001 0.000001 -0.000000 -2.169679 -7.707826 -52.286444 -1.077014 -2.178641 -57.035802 -1.235699 -2.400004 -59.576960 -0.000003 -0.000001 -0.000002 0.593499 2.455634 -56.484384 -1.132152 -2.997378 -65.080242 -1.109079 -3.236920 -68.590262 -0.000001 0.000000 0.000002 1.303222 5.891426 -65.858241 -2.589228 -2.454425 -70.907991 -2.769616 -2.572081 -74.074085 0.000000 -0.000000 -0.000000 0.029051 4.541950 -74.162378 -2.684736 -2.230680 -68.744672 -4.371515 -1.181409 -86.667526 -0.000000 -0.000001 -0.000000 0.930708 -15.187701 4.991299 0.000000 0.000000 0.000000 -54.595218 -4.695027 -21.803108 -1.943043 39.705467 7.057027 -51.183471 -15.861547 -14.387257 55.149512 18.649611 -29.698284 -0.442543 -14.180533 7.313145 21.666989 -29.244517 9.142376 -0.000001 0.000005 0.000004 5.673361 7.585016 36.844171 1.050462 3.824498 68.900257 0.499579 3.026047 62.196447 0.000000 0.000000 0.000004 -0.125704 1.886085 45.000770 -1.169012 3.204690 68.417670 -0.936423 1.813609 41.107535 -0.000000 -0.000000 0.000000 -5.312005 1.216641 58.508821 -0.745221 1.667574 48.011257 -0.816473 1.840614 53.666562 -0.000002 0.000001 -0.000002 -7.756797 -9.376457 47.264018 -0.526056 1.541578 45.600515 -0.508180 0.803437 24.986610 0.000000 -0.000000 -0.000000 -20.031022 47.887307 38.456578 53.564734 7.034326 -6.340296 -35.055137 9.511489 3.571566 -1.803473 3.939510 -9.476681 -0.000000 -0.000000 0.000003 -20.177958 3.729558 -28.539285 32.564914 4.280646 0.518747 -15.630060 -3.328244 27.694762 1.601737 -2.595629 4.658269 0.000000 0.000000 0.000000 
0.568654 79.367477 7.468782 0.188354 -63.030673 -3.070071 7.899641 -8.219495 8.532597 -0.769986 -11.249938 5.778991 0.000000 0.000000 0.000000 -12.026595 -11.514009 5.093314 5.352065 37.304745 7.154966 18.938301 24.498249 -3.642632 0.000001 -0.000001 -0.000001 7.857579 -21.919604 30.974457 0.000000 0.000000 0.000000 -21.326270 -25.568313 -2.826532 -0.025383 -17.497941 -4.137792 -2.765582 -6.958308 14.864479 42.927565 -18.897873 16.453209 -0.945124 11.655992 -8.273441 14.060065 23.951407 -4.258782 -0.000002 -0.000003 -0.000002 -2.215094 -7.742158 -53.603881 -1.119909 -2.204950 -58.146111 -1.288617 -2.431010 -60.890262 0.000000 0.000000 -0.000002 0.537333 2.419241 -57.792744 -1.191432 -3.024541 -66.361155 -1.171502 -3.261353 -69.904623 -0.000001 -0.000000 0.000001 1.239042 5.863656 -67.162261 -2.655539 -2.476362 -72.221368 -2.839697 -2.591481 -75.387701 0.000003 -0.000000 -0.000001 -0.038026 4.523854 -75.467662 -2.752216 -2.255881 -70.057708 -4.435362 -1.183692 -87.979701 0.000002 -0.000001 0.000000 0.146580 -15.459971 2.713259 0.000000 0.000000 0.000000 -57.506115 -5.072654 -23.534928 -0.738039 40.895163 7.076511 -50.027324 -13.816089 -14.796350 55.149512 18.649608 -29.698287 -0.442537 -14.180531 7.313150 21.666989 -29.244517 9.142382 0.000004 -0.000000 -0.000001 5.673362 7.585016 36.844168 1.050462 3.824497 68.900257 0.499578 3.026047 62.196454 0.000003 -0.000001 0.000001 -0.125704 1.886085 45.000770 -1.169012 3.204691 68.417670 -0.936423 1.813609 41.107531 0.000001 0.000000 0.000001 -5.312008 1.216641 58.508821 -0.745221 1.667574 48.011254 -0.816472 1.840615 53.666558 0.000000 -0.000001 -0.000001 -7.756800 -9.376457 47.264018 -0.526054 1.541579 45.600518 -0.508180 0.803438 24.986610 0.000000 0.000001 0.000000 -17.694910 47.254148 37.308214 52.163842 5.890349 -6.307642 -34.559220 9.197226 4.475032 -1.326753 4.280863 -9.756332 -0.000000 0.000001 0.000002 -15.548166 3.403061 -29.585094 33.297169 2.707005 1.966534 -18.357870 -4.916925 24.809948 1.604888 -3.250270 5.258794 0.000000 -0.000001 -0.000000 
-0.158572 79.978188 8.128664 -2.724215 -59.956097 -5.006039 7.505416 -8.226826 8.168866 -1.527755 -11.209393 5.298610 0.000000 0.000000 0.000000 -12.782776 -11.382101 4.629934 8.338197 34.560382 6.887038 17.862389 23.738210 -2.470278 0.000000 -0.000000 0.000002 8.584869 -21.755787 33.610155 0.000000 0.000000 0.000000 -27.651768 -28.364618 -2.405160 -0.026666 -18.419762 -2.358916 -5.291957 -5.926810 14.285839 43.353977 -18.915866 16.360972 -0.820366 11.735191 -8.393310 14.368881 24.345639 -4.486626 -0.000001 0.000001 0.000000 -2.247298 -7.764470 -54.521982 -1.150282 -2.222069 -58.919910 -1.326523 -2.452343 -61.805432 0.000000 0.000001 -0.000005 0.497583 2.394605 -58.704465 -1.233043 -3.040910 -67.253786 -1.215409 -3.277664 -70.820599 -0.000002 -0.000001 0.000002 1.193970 5.845134 -68.070895 -2.702015 -2.490728 -73.136532 -2.888860 -2.602362 -76.303001 -0.000002 0.000001 -0.000000 -0.085042 4.512091 -76.377211 -2.799532 -2.272582 -70.972707 -4.479986 -1.184804 -88.894038 -0.000001 -0.000000 0.000000 -0.667858 -15.637508 0.241172 0.000000 0.000000 0.000000 -60.363545 -5.259267 -25.202672 0.541717 42.083230 7.030212 -48.692863 -11.717014 -15.338728 55.149516 18.649611 -29.698281 -0.442537 -14.180531 7.313148 21.666979 -29.244517 9.142374 0.000002 0.000001 -0.000000 5.673362 7.585015 36.844171 1.050462 3.824499 68.900257 0.499578 3.026047 62.196454 0.000001 -0.000002 0.000001 -0.125704 1.886085 45.000770 -1.169013 3.204690 68.417670 -0.936426 1.813608 41.107535 -0.000001 0.000001 0.000005 -5.312006 1.216639 58.508828 -0.745221 1.667574 48.011254 -0.816473 1.840613 53.666558 0.000001 0.000000 -0.000000 -7.756799 -9.376458 47.264018 -0.526058 1.541580 45.600518 -0.508180 0.803438 24.986610 -0.000000 0.000000 -0.000001 -14.778904 46.980312 35.813171 50.115564 4.361341 -6.733981 -33.757524 9.120495 4.941196 -0.812996 4.650534 -10.063381 0.000000 0.000000 0.000000 -10.452725 2.901757 -31.115453 33.531222 0.574540 4.276577 -19.983916 -6.800253 21.710453 0.868989 -3.764599 5.595895 0.000000 0.000002 0.000000 
-0.806079 80.689011 9.136796 -4.269099 -56.957398 -5.671379 6.992625 -8.222292 7.783246 -2.535071 -11.161991 4.689575 0.000000 0.000000 0.000000 -13.787177 -11.218762 4.041869 11.602461 31.881107 6.465382 17.424407 22.943900 -1.329559 -0.000001 -0.000001 -0.000001 8.478564 -20.502862 36.126264 0.000000 0.000000 0.000000 -34.534755 -32.188414 -4.145001 -0.027683 -17.857395 -0.308368 -9.297703 -5.515033 15.170702 43.570572 -18.924926 16.312495 -0.757219 11.775684 -8.454595 14.526733 24.546197 -4.603829 -0.000001 0.000001 0.000000 -2.263430 -7.775088 -54.989546 -1.165426 -2.230485 -59.314087 -1.345046 -2.462529 -62.271518 0.000000 0.000000 -0.000001 0.478526 2.383203 -59.168925 -1.253577 -3.047947 -67.708458 -1.237031 -3.285225 -71.287087 -0.000001 -0.000000 0.000002 1.171038 5.836710 -68.533695 -2.726087 -2.497392 -73.602822 -2.914668 -2.606584 -76.769257 0.000002 0.000000 0.000000 -0.109032 4.506841 -76.840455 -2.824287 -2.279916 -71.438847 -4.503026 -1.185305 -89.359829 -0.000000 -0.000001 -0.000000 -1.505395 -15.764148 -2.396706 0.000000 0.000000 0.000000 -63.043370 -5.187491 -26.544777 1.665749 43.271858 6.930269 -47.203171 -9.686932 -15.881259 55.149512 18.649610 -29.698281 -0.442544 -14.180535 7.313145 21.666982 -29.244517 9.142375 -0.000001 0.000002 -0.000000 5.673363 7.585016 36.844168 1.050461 3.824496 68.900257 0.499581 3.026047 62.196447 0.000001 -0.000000 -0.000003 -0.125704 1.886083 45.000766 -1.169012 3.204690 68.417670 -0.936421 1.813609 41.107528 -0.000000 0.000000 -0.000001 -5.312007 1.216641 58.508821 -0.745222 1.667578 48.011251 -0.816473 1.840615 53.666558 0.000001 -0.000000 0.000001 -7.756797 -9.376457 47.264018 -0.526055 1.541578 45.600515 -0.508180 0.803437 24.986608 0.000001 0.000002 -0.000001 -11.613899 47.038485 33.996181 47.423940 2.794302 -7.353534 -32.874090 9.243944 4.507882 -0.265175 4.748688 -10.098259 -0.000000 -0.000002 0.000001 -5.587058 2.108863 -32.915348 32.976143 -1.898999 7.483808 -19.652389 -8.406336 18.065316 -0.263992 -4.564312 6.099483 0.000000 -0.000001 -0.000000 
